<?xml version="1.0" encoding="UTF-8" standalone="no"?>
<!DOCTYPE svg PUBLIC "-//W3C//DTD SVG 1.1//EN"
 "http://www.w3.org/Graphics/SVG/1.1/DTD/svg11.dtd">
<!-- Generated by graphviz version 3.0.0 (20220226.1711)
 -->
<!-- Title: dependencies Pages: 1 -->
<svg width="1161pt" height="247pt"
 viewBox="0.00 0.00 1161.00 246.80" xmlns="http://www.w3.org/2000/svg" xmlns:xlink="http://www.w3.org/1999/xlink">
<g id="graph0" class="graph" transform="scale(1 1) rotate(0) translate(4 242.8)">
<title>dependencies</title>
<polygon fill="white" stroke="transparent" points="-4,4 -4,-242.8 1157,-242.8 1157,4 -4,4"/>
<text text-anchor="middle" x="576.5" y="-8.2" font-family="sans-serif" font-size="14.00">dependencies</text>
<g id="clust1" class="cluster">
<title>cluster_AppModule</title>
<polygon fill="none" stroke="black" stroke-dasharray="1,5" points="8,-32.8 8,-230.8 1145,-230.8 1145,-32.8 8,-32.8"/>
</g>
<g id="clust10" class="cluster">
<title>cluster_AppModule_imports</title>
<polygon fill="none" stroke="black" points="993,-40.8 993,-92.8 1137,-92.8 1137,-40.8 993,-40.8"/>
</g>
<g id="clust12" class="cluster">
<title>cluster_AppModule_bootstrap</title>
<polygon fill="none" stroke="black" points="501,-170.8 501,-222.8 625,-222.8 625,-170.8 501,-170.8"/>
</g>
<g id="clust2" class="cluster">
<title>cluster_AppModule_declarations</title>
<polygon fill="none" stroke="black" points="16,-40.8 16,-92.8 985,-92.8 985,-40.8 16,-40.8"/>
</g>
<!-- AProposComponent -->
<g id="node1" class="node">
<title>AProposComponent</title>
<polygon fill="#ffffb3" stroke="black" points="977.34,-84.8 846.66,-84.8 846.66,-48.8 977.34,-48.8 977.34,-84.8"/>
<text text-anchor="middle" x="912" y="-62.6" font-family="Times,serif" font-size="14.00">AProposComponent</text>
</g>
<!-- AppModule -->
<g id="node8" class="node">
<title>AppModule</title>
<polygon fill="#8dd3c7" stroke="black" points="604.66,-149.8 601.66,-153.8 580.66,-153.8 577.66,-149.8 521.34,-149.8 521.34,-113.8 604.66,-113.8 604.66,-149.8"/>
<text text-anchor="middle" x="563" y="-127.6" font-family="Times,serif" font-size="14.00">AppModule</text>
</g>
<!-- AProposComponent&#45;&gt;AppModule -->
<g id="edge1" class="edge">
<title>AProposComponent&#45;&gt;AppModule</title>
<path fill="none" stroke="black" d="M912,-84.91C912,-104.14 912,-131.8 912,-131.8 912,-131.8 614.75,-131.8 614.75,-131.8"/>
<polygon fill="black" stroke="black" points="614.75,-128.3 604.75,-131.8 614.75,-135.3 614.75,-128.3"/>
</g>
<!-- AppComponent -->
<g id="node2" class="node">
<title>AppComponent</title>
<polygon fill="#ffffb3" stroke="black" points="828.94,-84.8 723.06,-84.8 723.06,-48.8 828.94,-48.8 828.94,-84.8"/>
<text text-anchor="middle" x="776" y="-62.6" font-family="Times,serif" font-size="14.00">AppComponent</text>
</g>
<!-- AppComponent&#45;&gt;AppModule -->
<g id="edge2" class="edge">
<title>AppComponent&#45;&gt;AppModule</title>
<path fill="none" stroke="black" d="M776,-84.83C776,-101.2 776,-122.8 776,-122.8 776,-122.8 614.83,-122.8 614.83,-122.8"/>
<polygon fill="black" stroke="black" points="614.83,-119.3 604.83,-122.8 614.83,-126.3 614.83,-119.3"/>
</g>
<!-- BarreNavComponent -->
<g id="node3" class="node">
<title>BarreNavComponent</title>
<polygon fill="#ffffb3" stroke="black" points="704.75,-84.8 569.25,-84.8 569.25,-48.8 704.75,-48.8 704.75,-84.8"/>
<text text-anchor="middle" x="637" y="-62.6" font-family="Times,serif" font-size="14.00">BarreNavComponent</text>
</g>
<!-- BarreNavComponent&#45;&gt;AppModule -->
<g id="edge3" class="edge">
<title>BarreNavComponent&#45;&gt;AppModule</title>
<path fill="none" stroke="black" d="M586.98,-84.91C586.98,-84.91 586.98,-103.79 586.98,-103.79"/>
<polygon fill="black" stroke="black" points="583.48,-103.79 586.98,-113.79 590.48,-103.79 583.48,-103.79"/>
</g>
<!-- SaisonsComponent -->
<g id="node4" class="node">
<title>SaisonsComponent</title>
<polygon fill="#ffffb3" stroke="black" points="551.12,-84.8 426.88,-84.8 426.88,-48.8 551.12,-48.8 551.12,-84.8"/>
<text text-anchor="middle" x="489" y="-62.6" font-family="Times,serif" font-size="14.00">SaisonsComponent</text>
</g>
<!-- SaisonsComponent&#45;&gt;AppModule -->
<g id="edge4" class="edge">
<title>SaisonsComponent&#45;&gt;AppModule</title>
<path fill="none" stroke="black" d="M536.11,-84.91C536.11,-84.91 536.11,-103.79 536.11,-103.79"/>
<polygon fill="black" stroke="black" points="532.61,-103.79 536.11,-113.79 539.61,-103.79 532.61,-103.79"/>
</g>
<!-- SeriesComponent -->
<g id="node5" class="node">
<title>SeriesComponent</title>
<polygon fill="#ffffb3" stroke="black" points="408.55,-84.8 293.45,-84.8 293.45,-48.8 408.55,-48.8 408.55,-84.8"/>
<text text-anchor="middle" x="351" y="-62.6" font-family="Times,serif" font-size="14.00">SeriesComponent</text>
</g>
<!-- SeriesComponent&#45;&gt;AppModule -->
<g id="edge5" class="edge">
<title>SeriesComponent&#45;&gt;AppModule</title>
<path fill="none" stroke="black" d="M351,-84.83C351,-101.2 351,-122.8 351,-122.8 351,-122.8 511.12,-122.8 511.12,-122.8"/>
<polygon fill="black" stroke="black" points="511.12,-126.3 521.12,-122.8 511.12,-119.3 511.12,-126.3"/>
</g>
<!-- SpinnerComponent -->
<g id="node6" class="node">
<title>SpinnerComponent</title>
<polygon fill="#ffffb3" stroke="black" points="275.38,-84.8 150.62,-84.8 150.62,-48.8 275.38,-48.8 275.38,-84.8"/>
<text text-anchor="middle" x="213" y="-62.6" font-family="Times,serif" font-size="14.00">SpinnerComponent</text>
</g>
<!-- SpinnerComponent&#45;&gt;AppModule -->
<g id="edge6" class="edge">
<title>SpinnerComponent&#45;&gt;AppModule</title>
<path fill="none" stroke="black" d="M213,-84.91C213,-104.14 213,-131.8 213,-131.8 213,-131.8 511.13,-131.8 511.13,-131.8"/>
<polygon fill="black" stroke="black" points="511.13,-135.3 521.13,-131.8 511.13,-128.3 511.13,-135.3"/>
</g>
<!-- TitreComponent -->
<g id="node7" class="node">
<title>TitreComponent</title>
<polygon fill="#ffffb3" stroke="black" points="132.04,-84.8 23.96,-84.8 23.96,-48.8 132.04,-48.8 132.04,-84.8"/>
<text text-anchor="middle" x="78" y="-62.6" font-family="Times,serif" font-size="14.00">TitreComponent</text>
</g>
<!-- TitreComponent&#45;&gt;AppModule -->
<g id="edge7" class="edge">
<title>TitreComponent&#45;&gt;AppModule</title>
<path fill="none" stroke="black" d="M78,-85.09C78,-107.01 78,-140.8 78,-140.8 78,-140.8 511.23,-140.8 511.23,-140.8"/>
<polygon fill="black" stroke="black" points="511.23,-144.3 521.23,-140.8 511.23,-137.3 511.23,-144.3"/>
</g>
<!-- AppComponent  -->
<g id="node10" class="node">
<title>AppComponent </title>
<polygon fill="#80b1d3" stroke="black" points="617.44,-214.8 508.56,-214.8 508.56,-178.8 617.44,-178.8 617.44,-214.8"/>
<text text-anchor="middle" x="563" y="-192.6" font-family="Times,serif" font-size="14.00">AppComponent </text>
</g>
<!-- AppModule&#45;&gt;AppComponent  -->
<g id="edge9" class="edge">
<title>AppModule&#45;&gt;AppComponent </title>
<path fill="none" stroke="black" stroke-dasharray="1,5" d="M563,-149.91C563,-149.91 563,-168.79 563,-168.79"/>
<polygon fill="black" stroke="black" points="559.5,-168.79 563,-178.79 566.5,-168.79 559.5,-168.79"/>
</g>
<!-- AppRoutingModule -->
<g id="node9" class="node">
<title>AppRoutingModule</title>
<polygon fill="#8dd3c7" stroke="black" points="1129.28,-84.8 1126.28,-88.8 1105.28,-88.8 1102.28,-84.8 1000.72,-84.8 1000.72,-48.8 1129.28,-48.8 1129.28,-84.8"/>
<text text-anchor="middle" x="1065" y="-62.6" font-family="Times,serif" font-size="14.00">AppRoutingModule</text>
</g>
<!-- AppRoutingModule&#45;&gt;AppModule -->
<g id="edge8" class="edge">
<title>AppRoutingModule&#45;&gt;AppModule</title>
<path fill="none" stroke="black" d="M1065,-85.09C1065,-107.01 1065,-140.8 1065,-140.8 1065,-140.8 614.94,-140.8 614.94,-140.8"/>
<polygon fill="black" stroke="black" points="614.94,-137.3 604.94,-140.8 614.94,-144.3 614.94,-137.3"/>
</g>
</g>
</svg>
