<?xml version="1.0" encoding="UTF-8" standalone="no"?>
<!DOCTYPE svg PUBLIC "-//W3C//DTD SVG 1.1//EN"
 "http://www.w3.org/Graphics/SVG/1.1/DTD/svg11.dtd">
<!-- Generated by graphviz version 3.0.0 (20220226.1711)
 -->
<!-- Title: dependencies Pages: 1 -->
<svg width="1161pt" height="247pt"
 viewBox="0.00 0.00 1161.00 246.80" xmlns="http://www.w3.org/2000/svg" xmlns:xlink="http://www.w3.org/1999/xlink">
<g id="graph0" class="graph" transform="scale(1 1) rotate(0) translate(4 242.8)">
<title>dependencies</title>
<polygon fill="white" stroke="transparent" points="-4,4 -4,-242.8 1157,-242.8 1157,4 -4,4"/>
<text text-anchor="middle" x="576.5" y="-8.2" font-family="sans-serif" font-size="14.00">dependencies</text>
<g id="clust1" class="cluster">
<title>cluster_AppModule</title>
<polygon fill="none" stroke="black" stroke-dasharray="1,5" points="8,-32.8 8,-230.8 1145,-230.8 1145,-32.8 8,-32.8"/>
</g>
<g id="clust2" class="cluster">
<title>cluster_AppModule_declarations</title>
<polygon fill="none" stroke="black" points="168,-40.8 168,-92.8 1137,-92.8 1137,-40.8 168,-40.8"/>
</g>
<g id="clust10" class="cluster">
<title>cluster_AppModule_imports</title>
<polygon fill="none" stroke="black" points="16,-40.8 16,-92.8 160,-92.8 160,-40.8 16,-40.8"/>
</g>
<g id="clust12" class="cluster">
<title>cluster_AppModule_bootstrap</title>
<polygon fill="none" stroke="black" points="510,-170.8 510,-222.8 634,-222.8 634,-170.8 510,-170.8"/>
</g>
<!-- AProposComponent -->
<g id="node1" class="node">
<title>AProposComponent</title>
<polygon fill="#ffffb3" stroke="black" points="1129.34,-84.8 998.66,-84.8 998.66,-48.8 1129.34,-48.8 1129.34,-84.8"/>
<text text-anchor="middle" x="1064" y="-62.6" font-family="Times,serif" font-size="14.00">AProposComponent</text>
</g>
<!-- AppModule -->
<g id="node8" class="node">
<title>AppModule</title>
<polygon fill="#8dd3c7" stroke="black" points="613.66,-149.8 610.66,-153.8 589.66,-153.8 586.66,-149.8 530.34,-149.8 530.34,-113.8 613.66,-113.8 613.66,-149.8"/>
<text text-anchor="middle" x="572" y="-127.6" font-family="Times,serif" font-size="14.00">AppModule</text>
</g>
<!-- AProposComponent&#45;&gt;AppModule -->
<g id="edge1" class="edge">
<title>AProposComponent&#45;&gt;AppModule</title>
<path fill="none" stroke="black" d="M1064,-85.09C1064,-107.01 1064,-140.8 1064,-140.8 1064,-140.8 623.95,-140.8 623.95,-140.8"/>
<polygon fill="black" stroke="black" points="623.95,-137.3 613.95,-140.8 623.95,-144.3 623.95,-137.3"/>
</g>
<!-- AppComponent -->
<g id="node2" class="node">
<title>AppComponent</title>
<polygon fill="#ffffb3" stroke="black" points="980.94,-84.8 875.06,-84.8 875.06,-48.8 980.94,-48.8 980.94,-84.8"/>
<text text-anchor="middle" x="928" y="-62.6" font-family="Times,serif" font-size="14.00">AppComponent</text>
</g>
<!-- AppComponent&#45;&gt;AppModule -->
<g id="edge2" class="edge">
<title>AppComponent&#45;&gt;AppModule</title>
<path fill="none" stroke="black" d="M928,-84.91C928,-104.14 928,-131.8 928,-131.8 928,-131.8 623.88,-131.8 623.88,-131.8"/>
<polygon fill="black" stroke="black" points="623.88,-128.3 613.88,-131.8 623.88,-135.3 623.88,-128.3"/>
</g>
<!-- BarreNavComponent -->
<g id="node3" class="node">
<title>BarreNavComponent</title>
<polygon fill="#ffffb3" stroke="black" points="856.75,-84.8 721.25,-84.8 721.25,-48.8 856.75,-48.8 856.75,-84.8"/>
<text text-anchor="middle" x="789" y="-62.6" font-family="Times,serif" font-size="14.00">BarreNavComponent</text>
</g>
<!-- BarreNavComponent&#45;&gt;AppModule -->
<g id="edge3" class="edge">
<title>BarreNavComponent&#45;&gt;AppModule</title>
<path fill="none" stroke="black" d="M789,-84.83C789,-101.2 789,-122.8 789,-122.8 789,-122.8 623.84,-122.8 623.84,-122.8"/>
<polygon fill="black" stroke="black" points="623.84,-119.3 613.84,-122.8 623.84,-126.3 623.84,-119.3"/>
</g>
<!-- SaisonsComponent -->
<g id="node4" class="node">
<title>SaisonsComponent</title>
<polygon fill="#ffffb3" stroke="black" points="703.12,-84.8 578.88,-84.8 578.88,-48.8 703.12,-48.8 703.12,-84.8"/>
<text text-anchor="middle" x="641" y="-62.6" font-family="Times,serif" font-size="14.00">SaisonsComponent</text>
</g>
<!-- SaisonsComponent&#45;&gt;AppModule -->
<g id="edge4" class="edge">
<title>SaisonsComponent&#45;&gt;AppModule</title>
<path fill="none" stroke="black" d="M596.39,-84.91C596.39,-84.91 596.39,-103.79 596.39,-103.79"/>
<polygon fill="black" stroke="black" points="592.89,-103.79 596.39,-113.79 599.89,-103.79 592.89,-103.79"/>
</g>
<!-- SeriesComponent -->
<g id="node5" class="node">
<title>SeriesComponent</title>
<polygon fill="#ffffb3" stroke="black" points="560.55,-84.8 445.45,-84.8 445.45,-48.8 560.55,-48.8 560.55,-84.8"/>
<text text-anchor="middle" x="503" y="-62.6" font-family="Times,serif" font-size="14.00">SeriesComponent</text>
</g>
<!-- SeriesComponent&#45;&gt;AppModule -->
<g id="edge5" class="edge">
<title>SeriesComponent&#45;&gt;AppModule</title>
<path fill="none" stroke="black" d="M545.47,-84.91C545.47,-84.91 545.47,-103.79 545.47,-103.79"/>
<polygon fill="black" stroke="black" points="541.97,-103.79 545.47,-113.79 548.97,-103.79 541.97,-103.79"/>
</g>
<!-- SpinnerComponent -->
<g id="node6" class="node">
<title>SpinnerComponent</title>
<polygon fill="#ffffb3" stroke="black" points="427.38,-84.8 302.62,-84.8 302.62,-48.8 427.38,-48.8 427.38,-84.8"/>
<text text-anchor="middle" x="365" y="-62.6" font-family="Times,serif" font-size="14.00">SpinnerComponent</text>
</g>
<!-- SpinnerComponent&#45;&gt;AppModule -->
<g id="edge6" class="edge">
<title>SpinnerComponent&#45;&gt;AppModule</title>
<path fill="none" stroke="black" d="M365,-84.83C365,-101.2 365,-122.8 365,-122.8 365,-122.8 520.11,-122.8 520.11,-122.8"/>
<polygon fill="black" stroke="black" points="520.11,-126.3 530.11,-122.8 520.11,-119.3 520.11,-126.3"/>
</g>
<!-- TitreComponent -->
<g id="node7" class="node">
<title>TitreComponent</title>
<polygon fill="#ffffb3" stroke="black" points="284.04,-84.8 175.96,-84.8 175.96,-48.8 284.04,-48.8 284.04,-84.8"/>
<text text-anchor="middle" x="230" y="-62.6" font-family="Times,serif" font-size="14.00">TitreComponent</text>
</g>
<!-- TitreComponent&#45;&gt;AppModule -->
<g id="edge7" class="edge">
<title>TitreComponent&#45;&gt;AppModule</title>
<path fill="none" stroke="black" d="M230,-84.91C230,-104.14 230,-131.8 230,-131.8 230,-131.8 520.06,-131.8 520.06,-131.8"/>
<polygon fill="black" stroke="black" points="520.06,-135.3 530.06,-131.8 520.06,-128.3 520.06,-135.3"/>
</g>
<!-- AppComponent  -->
<g id="node10" class="node">
<title>AppComponent </title>
<polygon fill="#80b1d3" stroke="black" points="626.44,-214.8 517.56,-214.8 517.56,-178.8 626.44,-178.8 626.44,-214.8"/>
<text text-anchor="middle" x="572" y="-192.6" font-family="Times,serif" font-size="14.00">AppComponent </text>
</g>
<!-- AppModule&#45;&gt;AppComponent  -->
<g id="edge9" class="edge">
<title>AppModule&#45;&gt;AppComponent </title>
<path fill="none" stroke="black" stroke-dasharray="1,5" d="M572,-149.91C572,-149.91 572,-168.79 572,-168.79"/>
<polygon fill="black" stroke="black" points="568.5,-168.79 572,-178.79 575.5,-168.79 568.5,-168.79"/>
</g>
<!-- AppRoutingModule -->
<g id="node9" class="node">
<title>AppRoutingModule</title>
<polygon fill="#8dd3c7" stroke="black" points="152.28,-84.8 149.28,-88.8 128.28,-88.8 125.28,-84.8 23.72,-84.8 23.72,-48.8 152.28,-48.8 152.28,-84.8"/>
<text text-anchor="middle" x="88" y="-62.6" font-family="Times,serif" font-size="14.00">AppRoutingModule</text>
</g>
<!-- AppRoutingModule&#45;&gt;AppModule -->
<g id="edge8" class="edge">
<title>AppRoutingModule&#45;&gt;AppModule</title>
<path fill="none" stroke="black" d="M88,-85.09C88,-107.01 88,-140.8 88,-140.8 88,-140.8 520.32,-140.8 520.32,-140.8"/>
<polygon fill="black" stroke="black" points="520.32,-144.3 530.32,-140.8 520.32,-137.3 520.32,-144.3"/>
</g>
</g>
</svg>
